<svg width="50" height="38" fill="none" xmlns="http://www.w3.org/2000/svg"><path fill-rule="evenodd" clip-rule="evenodd" d="M.607 31.85V2.02C.607.905 1.513 0 2.631 0h14.937c1.504 0 2.483 1.58 1.81 2.924L4.441 32.754C3.486 34.66.607 33.981.607 31.85zm49.778 0V2.02C50.385.905 49.48 0 48.362 0H33.424c-1.504 0-2.482 1.58-1.81 2.924l14.938 29.83c.955 1.906 3.833 1.228 3.833-.904zm-23.877 3.305V5.326c0-2.132 2.879-2.81 3.833-.904l14.938 29.83c.672 1.343-.306 2.924-1.81 2.924H28.53a2.022 2.022 0 01-2.023-2.02zM24.485 5.326v29.83c0 1.115-.906 2.02-2.024 2.02H7.524c-1.504 0-2.483-1.58-1.81-2.924L20.65 4.422c.955-1.907 3.834-1.228 3.834.904z" fill="#275553"/></svg>